<svg id="Layer_1" data-name="Layer 1" xmlns="http://www.w3.org/2000/svg" viewBox="0 0 539.24 137"><defs><style>.cls-1{fill:#1c1815;}.cls-2,.cls-3{fill:#231e1b;}.cls-2{fill-rule:evenodd;}</style></defs><path class="cls-1" d="M259.19,71.49H228.92a1.41,1.41,0,0,0-1.41,1.41V87.7a1.42,1.42,0,0,0,1.41,1.42h11.81V107.5s-2.65.91-10,.91c-8.65,0-20.73-3.16-20.73-29.73s12.58-30.06,24.39-30.06c10.22,0,14.62,1.8,17.43,2.66a1.42,1.42,0,0,0,1.69-1.38l3.38-14.3a1.34,1.34,0,0,0-.54-1.11c-1.14-.81-8.08-4.69-25.62-4.69-20.21,0-40.94,8.59-40.94,49.92s23.73,47.48,43.73,47.48c16.56,0,26.6-7.07,26.6-7.07a1.2,1.2,0,0,0,.46-1.07V72.9A1.41,1.41,0,0,0,259.19,71.49Z" transform="translate(-10.76 -8.41)"/><path class="cls-1" d="M415.17,34.75a1.4,1.4,0,0,0-1.4-1.42h-17a1.42,1.42,0,0,0-1.41,1.42V67.68H368.75V34.75a1.4,1.4,0,0,0-1.4-1.42H350.3a1.41,1.41,0,0,0-1.4,1.42v89.18a1.41,1.41,0,0,0,1.4,1.42h17.05a1.41,1.41,0,0,0,1.4-1.42V85.78h26.57l-.05,38.15a1.42,1.42,0,0,0,1.41,1.42h17.08a1.42,1.42,0,0,0,1.41-1.42Z" transform="translate(-10.76 -8.41)"/><path class="cls-1" d="M291.35,46.45a11,11,0,1,0-11,11.1A11,11,0,0,0,291.35,46.45Z" transform="translate(-10.76 -8.41)"/><path class="cls-1" d="M290.13,105.11V64a1.42,1.42,0,0,0-1.41-1.42h-17a1.62,1.62,0,0,0-1.48,1.58v59c0,1.73,1.08,2.25,2.48,2.25H288c1.68,0,2.09-.83,2.09-2.28Z" transform="translate(-10.76 -8.41)"/><path class="cls-1" d="M479.94,62.66H463a1.42,1.42,0,0,0-1.41,1.43v43.73A19.13,19.13,0,0,1,451.23,111c-6.1,0-7.72-2.77-7.72-8.74V64.09a1.42,1.42,0,0,0-1.41-1.43H424.94a1.42,1.42,0,0,0-1.41,1.43v41c0,17.73,9.88,22.07,23.48,22.07,11.16,0,20.15-6.16,20.15-6.16a36.43,36.43,0,0,0,.62,3.63,1.49,1.49,0,0,0,1.25.77l10.92,0a1.42,1.42,0,0,0,1.4-1.43V64.09A1.42,1.42,0,0,0,479.94,62.66Z" transform="translate(-10.76 -8.41)"/><path class="cls-1" d="M526.16,60.66A31.81,31.81,0,0,0,510,65V34.75a1.41,1.41,0,0,0-1.4-1.42H491.53a1.41,1.41,0,0,0-1.41,1.42v89.18a1.42,1.42,0,0,0,1.41,1.42h11.85a1.41,1.41,0,0,0,1.24-.75,27.19,27.19,0,0,0,.72-4.12s7,6.63,20.22,6.63c15.53,0,24.44-7.88,24.44-35.37S535.77,60.66,526.16,60.66Zm-6.67,50.25a20.19,20.19,0,0,1-9.84-2.85V79.82A22.54,22.54,0,0,1,518.39,77c6.09-.55,12,1.29,12,15.82C530.34,108.13,527.7,111.15,519.49,110.91Z" transform="translate(-10.76 -8.41)"/><path class="cls-1" d="M339.11,62.52H326.32l0-16.89c0-.64-.32-1-1.06-1H307.82c-.68,0-1.05.3-1.05.95V63.07s-8.73,2.11-9.32,2.28a1.43,1.43,0,0,0-1,1.36v11a1.41,1.41,0,0,0,1.41,1.42h8.93v26.39c0,19.59,13.75,21.52,23,21.52a38.89,38.89,0,0,0,10.14-1.67,1.32,1.32,0,0,0,.8-1.28l0-12.06a1.45,1.45,0,0,0-1.42-1.43c-.74,0-2.65.31-4.61.31-6.28,0-8.41-2.92-8.41-6.7V79.1h12.79a1.41,1.41,0,0,0,1.41-1.42V63.94A1.42,1.42,0,0,0,339.11,62.52Z" transform="translate(-10.76 -8.41)"/><path class="cls-2" d="M81,8.41a70.24,70.24,0,0,0-22.2,136.88c3.51.64,4.8-1.53,4.8-3.38,0-1.68-.07-7.21-.1-13.08-19.54,4.25-23.66-8.29-23.66-8.29-3.2-8.11-7.8-10.27-7.8-10.27-6.37-4.36.48-4.27.48-4.27,7.05.49,10.77,7.24,10.77,7.24,6.26,10.73,16.43,7.63,20.44,5.83.63-4.54,2.45-7.63,4.46-9.39-15.6-1.77-32-7.8-32-34.71a27.18,27.18,0,0,1,7.23-18.85c-.73-1.77-3.13-8.91.68-18.59,0,0,5.9-1.88,19.32,7.2a66.73,66.73,0,0,1,35.18,0c13.4-9.08,19.29-7.2,19.29-7.2,3.82,9.68,1.42,16.82.69,18.59A27.14,27.14,0,0,1,125.8,75c0,27-16.43,32.92-32.07,34.66,2.52,2.18,4.76,6.45,4.76,13,0,9.4-.08,17-.08,19.28,0,1.87,1.27,4.06,4.83,3.37A70.24,70.24,0,0,0,81,8.41Z" transform="translate(-10.76 -8.41)"/><path class="cls-3" d="M37.36,109.25a.88.88,0,0,1-1.2.21c-.51-.23-.8-.7-.64-1s.71-.46,1.21-.22.81.71.63,1.06Zm-.87-.64" transform="translate(-10.76 -8.41)"/><path class="cls-3" d="M40.2,112.42c-.33.31-1,.17-1.43-.32s-.55-1.15-.21-1.46,1-.17,1.44.32.55,1.15.2,1.46Zm-.67-.72" transform="translate(-10.76 -8.41)"/><path class="cls-3" d="M43,116.46c-.43.3-1.13,0-1.57-.6s-.43-1.38,0-1.68,1.13,0,1.57.59.43,1.39,0,1.69Zm0,0" transform="translate(-10.76 -8.41)"/><path class="cls-3" d="M46.77,120.37c-.39.43-1.21.31-1.81-.27a1.36,1.36,0,0,1-.4-1.79c.39-.43,1.22-.31,1.82.27s.8,1.37.39,1.79Zm0,0" transform="translate(-10.76 -8.41)"/><path class="cls-3" d="M52,122.64c-.17.55-1,.8-1.75.57s-1.32-.89-1.16-1.44,1-.82,1.76-.57,1.32.88,1.15,1.44Zm0,0" transform="translate(-10.76 -8.41)"/><path class="cls-3" d="M57.75,123.06c0,.58-.66,1.06-1.49,1.07s-1.52-.45-1.53-1,.66-1.06,1.5-1.07,1.52.45,1.52,1Zm0,0" transform="translate(-10.76 -8.41)"/><path class="cls-3" d="M63.1,122.15c.1.57-.48,1.15-1.31,1.3s-1.57-.2-1.68-.76.49-1.16,1.31-1.31,1.57.2,1.68.77Zm0,0" transform="translate(-10.76 -8.41)"/></svg>