<?xml version="1.0" encoding="utf-8"?>
<!-- Generator: Adobe Illustrator 26.0.2, SVG Export Plug-In . SVG Version: 6.00 Build 0)  -->
<svg version="1.1" id="katman_1" xmlns="http://www.w3.org/2000/svg" xmlns:xlink="http://www.w3.org/1999/xlink" x="0px" y="0px"
	 viewBox="0 0 493 133.9" style="enable-background:new 0 0 493 133.9;" xml:space="preserve">
<style type="text/css">
	.st0{fill-rule:evenodd;clip-rule:evenodd;}
</style>
<path class="st0" d="M477.5,7.6h-102c-4.9,0-9,3.9-9,8.6v102.5c0,4.8,2.7,8.6,7.6,8.6h102c4.9,0,10.1-3.9,10.1-8.6V16.2
	C486.2,11.5,482.4,7.6,477.5,7.6z M412,53.2h16.1v8.2h0.2c2.5-4.4,9.7-8.9,18.7-8.9c17.2,0,22,9.1,22,26.1v31.6H452V81.7
	c0-7.6-3-14.2-10.1-14.2c-8.6,0-12.7,5.8-12.7,15.4v27.4H412L412,53.2L412,53.2z M383.5,110.3h17.1v-57h-17.1V110.3z M402.8,33.3
	c0,5.9-4.8,10.7-10.7,10.7c-5.9,0-10.7-4.8-10.7-10.7s4.8-10.7,10.7-10.7C398,22.6,402.8,27.4,402.8,33.3z"/>
<g>
	<g>
		<path d="M349.3,110.3h-16v-6.8h-0.2c-3.5,4.1-9.7,7.5-20.2,7.5c-14.3,0-26.5-10.7-26.5-29.2c0-17.6,12.1-29.3,27.1-29.3
			c9.3,0,15,3.3,18.5,7.5h0.2V24.7h17.1V110.3z M317.8,65.4c-9.8,0-15.3,7-15.3,16.2c0,9.3,5.5,16.5,15.3,16.5
			c9.8,0,15.5-7.1,15.5-16.5C333.3,71.9,327.6,65.4,317.8,65.4L317.8,65.4z"/>
		<path d="M279,101.1c-4,5.2-12.4,9.9-25.8,9.9c-17.9,0-29.3-11.9-29.3-30.5c0-16.6,10.3-28,29.8-28c16.8,0,27.2,11.1,27.2,30.5
			c0,1.9-0.3,3.9-0.3,3.9H240l0.1,1.8c1.1,4.9,4.8,10.9,13.4,10.9c7.4,0,12.5-4,14.8-7.1L279,101.1z M264.4,76
			c0.1-6-4.3-12.1-11.3-12.1c-8.3,0-12.7,6.5-13.2,12.1H264.4z"/>
		<polygon points="223.9,53.2 203.9,53.2 183.9,76 183.9,24.7 166.8,24.7 166.8,110.3 183.9,110.3 183.9,81.8 205,110.3 
			225.2,110.3 201.1,79.1 		"/>
		<path d="M98.4,53.2h16.1v8.2h0.2c2.5-4.4,9.7-8.9,18.7-8.9c17.2,0,22,10.9,22,26.1v31.6h-17.1V81.7c0-8.4-3-14.2-10.1-14.2
			c-8.6,0-12.7,6.8-12.7,15.4v27.4H98.4L98.4,53.2L98.4,53.2z"/>
		<path d="M69.9,110.3H87v-57H69.9V110.3z M78.5,43.5c5.7,0,10.3-4.6,10.3-10.3S84.1,23,78.5,23c-5.7,0-10.3,4.6-10.3,10.3
			S72.8,43.5,78.5,43.5z"/>
		<polygon points="24.3,24.7 7.2,24.7 7.2,110.3 58.5,110.3 58.5,93.2 24.3,93.2 		"/>
	</g>
</g>
</svg>
