<svg xmlns="http://www.w3.org/2000/svg" viewBox="0 0 414.58 167.59"><defs><style>.cls-1{fill:#1d1d1b;}</style></defs><g id="Layer_2" data-name="Layer 2"><g id="Layer_1-2" data-name="Layer 1"><path class="cls-1" d="M0,33.67H.62a31.9,31.9,0,0,1,4.84-18C10,8,17.09.93,25.53.62V68.05C25.53,76.9,24.81,80,13.9,80h-.62v.62H61.46V80h-.72C49.83,80,49.21,76.9,49.21,68.05V.62c8.34.31,15.55,7.41,20.08,15a32.79,32.79,0,0,1,4.83,18h.62V0H0Z"/><path class="cls-1" d="M112.52,80C108.41,80,108,77.11,108,69.7V45.3c0-7,.3-12.46,4.52-15.34A4.45,4.45,0,0,1,115.2,29c4.12,0,4.94,4.64,4.94,10V69.7c0,7.41-.41,10.29-4.53,10.29v.62h33.87V80c-7.82,0-8.75-2.06-8.75-10.09V42.42c0-5.05-.72-8.75-5.25-12.67-3.39-2.78-8.75-3.91-13.07-3.91-8.65,0-12.66,4.53-14.41,9.27V1.75H78.55v.62c8,0,8.75,2.26,8.75,9.88V69.9c0,8-1.13,10.09-8.75,10.09v.62h34Z"/><path class="cls-1" d="M171,81.13a15.35,15.35,0,0,0,5.66-.73c2.89-1.13,6-3.91,8.14-10.7,1.64,6.07,3.39,8.44,9.16,10.7a14.71,14.71,0,0,0,5.45.93,17.53,17.53,0,0,0,8.34-2c4.74-2.48,5.36-12.26,5.36-14.73h-.72c-.31,10.92-3.81,13.9-5.25,13.9-1.65,0-1.65-2.88-1.65-4.53V47.15c0-5.87-.31-12-7.1-16.78-4.53-3.19-11.23-4.53-17.51-4.53-12.86,0-23.57,5.66-23.57,14.21a10.05,10.05,0,0,0,10,10.29c5.05,0,10.4-3.91,10.4-10.09A8.56,8.56,0,0,0,169,31.71a5.21,5.21,0,0,0-2.26.41c2.06-5,8.44-5.35,10.6-5.35,3.92,0,7.42.82,7.42,10.81,0,6.07-.62,13.18-14.31,15.44l-2.47.41c-7.11,1.24-11.74,2-14,9.27a17.6,17.6,0,0,0-.72,4.73C153.29,78.65,162.25,81.13,171,81.13Zm2.68-20.59c.72-5.77,1.23-6.49,7.92-11.43a7.9,7.9,0,0,0,3.09-4.94V57.45c0,7.82-.2,17-6.07,20.79a3,3,0,0,1-2.06.72c-2.57,0-2.78-3.91-2.88-6-.21-2.47-.41-4.63-.41-7A35.61,35.61,0,0,1,173.68,60.54Z"/><path class="cls-1" d="M253.67,80c-8,0-8.65-2.67-8.65-10.29V1.75H215.47v.62c8,0,8.75,2.26,8.75,9.88V69.9c0,7.62-.72,10.09-8.75,10.09v.62h38.2Z"/><path class="cls-1" d="M286.92,81.23c4.43,0,8.75-.72,11.63-2.47,8.55-5.15,10.71-15.34,11.33-20.7h-.72C308,68.46,301.75,80.2,290.73,80.2c-9.47,0-11.84-7.83-11.84-20.9V53h30.89c0-4.43-.11-7.93-1.45-11.63-3-7.72-8.85-15.55-22.23-15.55a26,26,0,0,0-18,6.9c-7.21,7-10,14.82-10,22.24C258.09,65.17,263.86,81.23,286.92,81.23Zm-8-31.92c0-15.75,1.13-22.85,7-22.85a3.4,3.4,0,0,1,2.27.51c3,2.58,3.08,6.7,3.08,12.15,0,3.81-.1,9.16-.3,13.18H278.89Z"/><path class="cls-1" d="M347,44.58l-3-.93C335.2,41,332.53,38,332.53,34.18c0-2.78,1.44-7.82,7.2-7.82,8.24,0,17.2,11,18,18.94h.62V26.15h-.72c-.42,1.34-1.24,2.78-3,2.78-3.71,0-8.44-3.09-15.34-3.09-8.85,0-21.41,5.05-21.41,18.74,0,12,9.47,15,17.19,17.6l2.68.93c5.86,2.06,11.53,3.6,11.53,9.78a7.62,7.62,0,0,1-7.93,7.72c-9.78,0-21.83-13.59-24.09-25.53h-.62V80.61h.72c1.65-2.68,3.09-3.71,5.05-3.71,3.19,0,11.53,4.43,20.17,4.43,11,0,21.11-7.21,21.11-19.25C363.72,48.8,354.15,46.74,347,44.58Z"/><path class="cls-1" d="M132.49,86.88h1c9.89,0,12,5.35,12,18.74v39.12L115.71,86.26H78v.62h.72c10.92,0,11.53,3.09,11.53,11.94v48.7c0,13.38-2.16,18.74-12,18.74h-1v.61h26.87v-.61H103c-9.89,0-11.84-5.36-11.84-18.74V96l36.55,70.83h18.73V105.62c0-13.39,2-18.74,11.84-18.74h1.13v-.62H132.49Z"/><path class="cls-1" d="M222.27,156.17V112.72H194.68v.72c5.66.1,6.79,3.09,6.79,9.78v19.36c0,10.5-.41,16.88-4.73,19.66a4.07,4.07,0,0,1-2.37.72c-3.71,0-3.91-4.22-3.91-11.63V112.72H160.91v.72c8,0,8.75,2.16,8.75,9.78v24.2c0,9.16.41,13.28,5.35,16.78a20.41,20.41,0,0,0,11.23,3.29c7.82,0,12.35-3.71,15-10.81v10.19H231v-.61C223,166.26,222.27,163.78,222.27,156.17Z"/><path class="cls-1" d="M295.77,156.17V130.94c0-6.59-.82-11.53-5.86-15.54a17.05,17.05,0,0,0-10.71-3.3c-7.41,0-13.49,3.2-16.06,9.78v-9.16H233.69v.72c8,0,8.76,2.47,8.76,10.09v32.64c0,7.61-.72,10.09-8.76,10.09v.61h34v-.61c-4.22,0-4.53-3.5-4.53-10.09v-24c0-8.34.62-10,1.75-12.25a6.28,6.28,0,0,1,5.35-3.61c3,0,4.94,2,4.94,12.36v27.49c0,6.59-.3,10.09-4.53,10.09v.61h33.87v-.61C296.5,166.26,295.77,163.78,295.77,156.17Z"/><path class="cls-1" d="M341.59,166.46c-9.47,0-11.84-7.82-11.84-20.9v-6.28h30.88c0-4.42-.1-7.93-1.44-11.63-3-7.72-8.85-15.55-22.24-15.55a26,26,0,0,0-18,6.9c-7.21,7-10,14.83-10,22.24,0,10.19,5.77,26.25,28.83,26.25,4.42,0,8.75-.72,11.63-2.47,8.55-5.15,10.71-15.34,11.33-20.69H360C358.88,154.73,352.6,166.46,341.59,166.46Zm-11.84-30.88c0-15.76,1.13-22.86,7-22.86a3.29,3.29,0,0,1,2.26.52c3,2.57,3.09,6.69,3.09,12.14,0,3.81-.1,9.17-.31,13.18h-12Z"/><path class="cls-1" d="M397.9,130.84l-3-.93c-8.85-2.67-11.53-5.66-11.53-9.47,0-2.78,1.44-7.82,7.21-7.82,8.24,0,17.19,11,18,18.94h.61V112.41h-.72c-.41,1.34-1.23,2.78-3,2.78-3.71,0-8.44-3.09-15.34-3.09-8.86,0-21.42,5.05-21.42,18.74,0,12,9.48,15,17.2,17.6l2.67.93c5.87,2.06,11.53,3.61,11.53,9.78a7.62,7.62,0,0,1-7.92,7.72c-9.78,0-21.83-13.59-24.09-25.53h-.62v25.53h.72c1.65-2.67,3.09-3.7,5-3.7,3.2,0,11.53,4.42,20.18,4.42,11,0,21.11-7.2,21.11-19.25C414.58,135.06,405,133,397.9,130.84Z"/></g></g></svg>